<?xml version="1.0" encoding="UTF-8"?><svg id="background" xmlns="http://www.w3.org/2000/svg" xmlns:xlink="http://www.w3.org/1999/xlink" viewBox="0 0 600 400"><defs><style>.cls-1{fill:url(#linear-gradient);}.cls-2{opacity:.5;}</style><linearGradient id="linear-gradient" x1="300" y1="3.249" x2="300" y2="394.209" gradientUnits="userSpaceOnUse"><stop offset="0" stop-color="#e0d8bf"/><stop offset="1" stop-color="#e0c998"/></linearGradient></defs><g class="cls-2"><path class="cls-1" d="M588.96,.5h11.04V0h-11.91l-5.1,8.84-5.11,8.84h-20.41l-10.21-17.68h-22.15l-7.46,12.92-2.75,4.76h-20.42L484.28,0h-22.15l-10.21,17.68h-20.42L421.29,0h-22.15l-10.2,17.68h-20.42L358.31,0h-22.15l-7.46,12.92-2.75,4.76h-20.41L295.33,0h-22.15l-10.21,17.68h-20.41L232.35,0h-22.15l-5.11,8.84-5.1,8.84h-20.42L169.37,0h-22.15l-2.76,4.76-7.45,12.92h-20.42L106.38,0h-22.15l-10.21,17.68h-20.41L43.4,0H21.25l-5.1,8.84-5.11,8.84H0v1H11.04l5.11,8.84,5.1,8.84-5.1,8.84-5.11,8.85H0v1H11.04l5.11,8.84,5.1,8.84-5.1,8.84-5.11,8.84H0v1H11.04l5.11,8.84,5.1,8.84-5.1,8.84-5.11,8.84H0v1H11.04l5.11,8.84,5.1,8.84-5.1,8.85-5.11,8.84H0v1H11.04l5.11,8.84,5.1,8.84-5.1,8.84-5.11,8.84H0v1H11.04l5.11,8.84,5.1,8.84-5.1,8.84-5.11,8.84H0v1H11.04l5.11,8.84,5.1,8.85-5.1,8.84-5.11,8.84H0v1H11.04l5.11,8.84,5.1,8.84-5.1,8.84-5.11,8.84H0v1H11.04l5.11,8.84,5.1,8.84-5.1,8.84-5.11,8.84H0v1H11.04l5.11,8.85,5.1,8.84-5.1,8.84-5.11,8.84H0v1H11.04l5.11,8.84,5.1,8.84h22.15l10.21-17.68h20.41l6.81,11.79,3.4,5.89h22.15l10.21-17.68h20.42l7.45,12.92,2.76,4.76h22.15l10.2-17.68h20.42l5.1,8.84,5.11,8.84h22.15l10.21-17.68h20.41l6.81,11.79,3.4,5.89h22.15l10.21-17.68h20.41l2.75,4.76,7.46,12.92h22.15l10.21-17.68h20.42l10.2,17.68h22.15l10.21-17.68h20.42l6.8,11.79,3.41,5.89h22.15l10.2-17.68h20.42l2.75,4.76,7.46,12.92h22.15l10.21-17.68h20.41l5.11,8.84,5.1,8.84h11.91v-.5h-11.04l-5.11-8.84-5.1-8.84,5.1-8.84,5.11-8.84h11.04v-1h-11.04l-5.11-8.84-5.1-8.85,5.1-8.84,5.11-8.84h11.04v-1h-11.04l-5.11-8.84-5.1-8.84,5.1-8.84,5.11-8.84h11.04v-1h-11.04l-5.11-8.84-5.1-8.84,5.1-8.84,5.11-8.84h11.04v-1h-11.04l-5.11-8.85-5.1-8.84,5.1-8.84,5.11-8.84h11.04v-1h-11.04l-5.11-8.84-5.1-8.84,5.1-8.84,5.11-8.84h11.04v-1h-11.04l-5.11-8.84-5.1-8.84,5.1-8.84,5.11-8.85h11.04v-1h-11.04l-5.11-8.84-5.1-8.84,5.1-8.84,5.11-8.84h11.04v-1h-11.04l-5.11-8.84-5.1-8.84,5.1-8.84,5.11-8.84h11.04v-1h-11.04l-5.11-8.84-5.1-8.84,5.1-8.85,5.11-8.84h11.04v-1h-11.04l-5.11-8.84-5.1-8.84,5.1-8.84,5.11-8.84Zm-62.98,0h20.41l10.21,17.68-10.21,17.68h-20.41l-10.21-17.68,10.21-17.68Zm-125.97,180.82l-10.21-17.68,10.21-17.69h20.42l10.21,17.69-10.21,17.68h-20.42Zm30.63,18.68l-10.21,17.68h-20.42l-10.21-17.68,10.21-17.68h20.42l10.21,17.68Zm-31.5-18.18l-10.2,17.68h-20.42l-10.21-17.68,10.21-17.68h20.42l10.2,17.68Zm-31.49,18.18l-10.21,17.68h-20.41l-6.81-11.79-3.4-5.89,10.21-17.68h20.41l10.21,17.68Zm-10.21-18.68h-20.41l-10.21-17.68,10.21-17.69h20.41l10.21,17.69-10.21,17.68Zm-28.75-12.45l7.47,12.95-7.46,12.92-2.75,4.76h-20.41l-10.21-17.68,10.21-17.68h20.41l2.74,4.73Zm-24.02,31.13l-10.21,17.68h-20.41l-2.75-4.76-7.46-12.92,7.46-12.92,2.75-4.76h20.41l10.21,17.68Zm-10.21-18.68h-20.41l-2.74-4.74-7.47-12.94,7.46-12.92,2.75-4.77h20.41l10.21,17.69-10.21,17.68Zm-21.28,.5l-10.21,17.68h-20.41l-10.21-17.68,10.21-17.68h20.41l10.21,17.68Zm-31.49,18.18l-10.21,17.68h-20.42l-5.1-8.84-5.1-8.84,5.1-8.84,5.1-8.84h20.42l10.21,17.68Zm-10.21-18.68h-20.42l-5.1-8.84-5.1-8.84,5.1-8.84,5.1-8.85h20.42l10.21,17.69-10.21,17.68Zm-26.39-8.34l5.11,8.84-5.11,8.84-5.1,8.84h-20.42l-10.2-17.68,10.2-17.68h20.42l5.1,8.84Zm-36.59,8.34h-20.42l-10.21-17.68,10.21-17.69h20.42l10.21,17.69-10.21,17.68Zm0,1l10.21,17.68-10.21,17.68h-20.42l-10.21-17.68,10.21-17.68h20.42Zm0,36.36l10.21,17.68-10.21,17.69h-20.42l-10.21-17.69,10.21-17.68h20.42Zm.87-.5l10.2-17.68h20.42l5.1,8.84,5.11,8.84-5.11,8.84-5.1,8.84h-20.42l-10.2-17.68Zm36.59,9.34l5.1-8.84h20.42l10.21,17.68-10.21,17.69h-20.42l-5.1-8.85-5.1-8.84,5.1-8.84Zm26.39-9.34l10.21-17.68h20.41l6.81,11.79,3.4,5.89-10.21,17.68h-20.41l-10.21-17.68Zm38.95,5.27l2.75-4.77h20.41l10.21,17.68-10.21,17.69h-20.41l-2.72-4.71-7.49-12.98,7.46-12.91Zm24.03-5.27l10.21-17.68h20.41l2.75,4.76,7.46,12.92-7.46,12.92-2.75,4.76h-20.41l-10.21-17.68Zm41.7,.5h20.41l10.21,17.68-10.21,17.69h-20.41l-10.21-17.69,10.21-17.68Zm21.28-.5l10.21-17.68h20.42l10.2,17.68-10.2,17.68h-20.42l-10.21-17.68Zm41.7,.5h20.42l10.21,17.68-10.21,17.69h-20.42l-10.21-17.69,10.21-17.68Zm21.28-.5l10.21-17.68h20.42l6.8,11.79,3.41,5.89-10.21,17.68h-20.42l-10.21-17.68Zm10.21-18.68l-10.21-17.68,10.21-17.68h20.42l10.21,17.68-10.21,17.68h-20.42Zm0-36.36l-10.21-17.68,10.21-17.69h20.42l6.8,11.79,3.41,5.89-10.21,17.69h-20.42Zm-11.07-18.19h-20.42l-10.21-17.68,10.21-17.68h20.42l10.21,17.68-10.21,17.68Zm-21.29,.5l-10.2,17.69h-20.42l-10.21-17.69,10.21-17.68h20.42l10.2,17.68Zm-41.7-.5h-20.41l-6.81-11.78-3.4-5.9,10.21-17.68h20.41l10.21,17.68-10.21,17.68Zm-28.74-12.41l7.46,12.91-7.46,12.92-2.75,4.77h-20.41l-10.21-17.69,10.21-17.68h20.41l2.75,4.77Zm-34.24,12.41h-20.41l-2.75-4.76-7.46-12.92,7.47-12.94,2.74-4.74h20.41l10.21,17.68-10.21,17.68Zm-24.68-5.39l3.4,5.89-10.21,17.69h-20.41l-10.21-17.68,10.21-17.69h20.41l6.81,11.79Zm-38.3,5.39h-20.42l-5.1-8.84-5.1-8.84,5.1-8.84,5.1-8.84h20.42l10.21,17.68-10.21,17.68Zm-26.39-8.34l5.11,8.84-5.11,8.85-5.1,8.84h-20.42l-10.2-17.69,10.2-17.68h20.42l5.1,8.84Zm-36.59,8.34h-20.42l-10.21-17.68,10.21-17.68h20.42l10.21,17.68-10.21,17.68Zm-24.04-4.26l2.76,4.76-2.76,4.77-7.45,12.92h-20.42l-10.21-17.69,10.21-17.68h20.42l7.45,12.92Zm-7.45,23.45l7.47,12.94,2.74,4.74-2.76,4.76-7.45,12.92h-20.42l-10.21-17.68,10.21-17.68h20.42Zm0,36.36l7.45,12.92,2.76,4.76-2.76,4.77-7.45,12.91h-20.42l-10.21-17.68,10.21-17.68h20.42Zm0,36.36l7.49,12.98,2.72,4.71-2.76,4.76-7.45,12.92h-20.42l-10.21-17.68,10.21-17.69h20.42Zm11.07,18.19h20.42l10.21,17.68-10.21,17.68h-20.42l-10.21-17.68,10.21-17.68Zm21.29-.5l10.2-17.69h20.42l5.1,8.84,5.11,8.85-5.11,8.84-5.1,8.84h-20.42l-10.2-17.68Zm36.59,9.34l5.1-8.84h20.42l10.21,17.68-10.21,17.68h-20.42l-5.1-8.84-5.1-8.84,5.1-8.84Zm26.39-9.34l10.21-17.69h20.41l10.21,17.69-10.21,17.68h-20.41l-10.21-17.68Zm38.95,5.26l2.75-4.76h20.41l10.21,17.68-10.21,17.68h-20.41l-2.75-4.76-7.46-12.92,7.46-12.92Zm24.03-5.26l10.21-17.69h20.41l2.72,4.71,7.49,12.98-7.46,12.91-2.75,4.77h-20.41l-10.21-17.68Zm41.7,.5h20.41l10.21,17.68-10.21,17.68h-20.41l-6.81-11.79-3.4-5.89,10.21-17.68Zm21.28-.5l10.21-17.69h20.42l10.2,17.69-10.2,17.68h-20.42l-10.21-17.68Zm41.7,.5h20.42l10.21,17.68-10.21,17.68h-20.42l-10.21-17.68,10.21-17.68Zm21.28-.5l10.21-17.69h20.42l10.21,17.69-10.21,17.68h-20.42l-10.21-17.68Zm38.95,5.26l2.75-4.76h20.42l10.21,17.68-10.21,17.68h-20.42l-2.75-4.76-7.45-12.92,7.45-12.92Zm2.75-5.76l-2.71-4.71-7.49-12.98,7.45-12.91,2.75-4.77h20.42l10.21,17.68-10.21,17.69h-20.42Zm0-36.37l-2.75-4.76-7.45-12.92,7.45-12.92,2.75-4.76h20.42l10.21,17.68-10.21,17.68h-20.42Zm0-36.36l-2.73-4.74-7.47-12.94,7.45-12.92,2.75-4.77h20.42l10.21,17.69-10.21,17.68h-20.42Zm0-36.37l-2.75-4.76-7.45-12.92,7.47-12.94,2.73-4.74h20.42l10.21,17.68-10.21,17.68h-20.42Zm0-36.36l-2.75-4.76-7.45-12.92,7.47-12.95,2.73-4.73h20.42l10.21,17.68-10.21,17.68h-20.42Zm-4.27-5.39l3.41,5.89-10.21,17.68h-20.42l-10.21-17.68,10.21-17.68h20.42l6.8,11.79Zm-38.29,5.39h-20.42l-10.21-17.68,10.21-17.68h20.42l10.21,17.68-10.21,17.68Zm-21.29,.5l-10.2,17.68h-20.42l-10.21-17.68,10.21-17.68h20.42l10.2,17.68Zm-41.7-.5h-20.41l-6.81-11.79-3.4-5.89,10.21-17.68h20.41l10.21,17.68-10.21,17.68Zm-28.74-12.42l7.46,12.92-7.47,12.95-2.74,4.73h-20.41l-10.21-17.68,10.21-17.68h20.41l2.75,4.76Zm-34.24,12.42h-20.41l-2.75-4.76-7.46-12.92,7.47-12.95,2.74-4.73h20.41l10.21,17.68-10.21,17.68Zm-24.68-5.39l3.4,5.89-10.21,17.68h-20.41l-10.21-17.68,10.21-17.68h20.41l6.81,11.79Zm-38.3,5.39h-20.42l-5.1-8.84-5.1-8.84,5.1-8.84,5.1-8.84h20.42l10.21,17.68-10.21,17.68Zm-26.39-8.34l5.11,8.84-5.11,8.84-5.1,8.84h-20.42l-10.2-17.68,10.2-17.68h20.42l5.1,8.84Zm-36.59,8.34h-20.42l-10.21-17.68,10.21-17.68h20.42l10.21,17.68-10.21,17.68Zm-24.04-4.26l2.76,4.76-2.74,4.74-7.47,12.94h-20.42l-10.21-17.68,10.21-17.68h20.42l7.45,12.92Zm-38.94,4.26h-20.42l-2.75-4.76-7.46-12.92,7.48-12.95,2.73-4.73h20.42l10.2,17.68-10.2,17.68Zm0,1l10.2,17.68-10.2,17.68h-20.42l-2.75-4.76-7.46-12.92,7.48-12.94,2.73-4.74h20.42Zm0,36.36l10.2,17.69-10.2,17.68h-20.42l-2.73-4.74-7.48-12.94,7.46-12.92,2.75-4.77h20.42Zm0,36.37l10.2,17.68-10.2,17.68h-20.42l-2.75-4.76-7.46-12.92,7.46-12.92,2.75-4.76h20.42Zm0,36.36l10.2,17.68-10.2,17.69h-20.42l-2.72-4.71-7.49-12.98,7.46-12.91,2.75-4.77h20.42Zm0,36.37l10.2,17.68-10.2,17.68h-20.42l-2.75-4.76-7.46-12.92,7.46-12.92,2.75-4.76h20.42Zm0,36.36l10.2,17.68-10.2,17.68h-20.42l-2.75-4.76-7.46-12.92,7.46-12.92,2.75-4.76h20.42Zm.86-.5l10.21-17.68h20.42l7.45,12.92,2.76,4.76-2.76,4.76-7.45,12.92h-20.42l-10.21-17.68Zm41.7,.5h20.42l10.21,17.68-10.21,17.68h-20.42l-10.21-17.68,10.21-17.68Zm21.29-.5l10.2-17.68h20.42l5.1,8.84,5.11,8.84-5.11,8.84-5.1,8.84h-20.42l-10.2-17.68Zm36.59,9.34l5.1-8.84h20.42l10.21,17.68-10.21,17.68h-20.42l-5.1-8.84-5.1-8.84,5.1-8.84Zm26.39-9.34l10.21-17.68h20.41l6.81,11.79,3.4,5.89-10.21,17.68h-20.41l-10.21-17.68Zm38.95,5.26l2.75-4.76h20.41l10.21,17.68-10.21,17.68h-20.41l-2.75-4.76-7.46-12.92,7.46-12.92Zm24.03-5.26l10.21-17.68h20.41l2.75,4.76,7.46,12.92-7.46,12.92-2.75,4.76h-20.41l-10.21-17.68Zm41.7,.5h20.41l10.21,17.68-10.21,17.68h-20.41l-6.81-11.79-3.4-5.89,10.21-17.68Zm21.28-.5l10.21-17.68h20.42l10.2,17.68-10.2,17.68h-20.42l-10.21-17.68Zm41.7,.5h20.42l10.21,17.68-10.21,17.68h-20.42l-10.21-17.68,10.21-17.68Zm21.28-.5l10.21-17.68h20.42l6.8,11.79,3.41,5.89-10.21,17.68h-20.42l-10.21-17.68Zm38.95,5.26l2.75-4.76h20.42l10.21,17.68-10.21,17.68h-20.42l-2.75-4.76-7.45-12.92,7.45-12.92Zm24.04-5.26l10.2-17.68h20.42l2.75,4.76,7.46,12.92-7.46,12.92-2.75,4.76h-20.42l-10.2-17.68Zm10.2-18.68l-10.2-17.68,10.2-17.69h20.42l2.72,4.71,7.49,12.98-7.46,12.91-2.75,4.77h-20.42Zm0-36.37l-10.2-17.68,10.2-17.68h20.42l2.75,4.76,7.46,12.92-7.46,12.92-2.75,4.76h-20.42Zm0-36.36l-10.2-17.68,10.2-17.68h20.42l2.73,4.73,7.48,12.95-7.46,12.92-2.75,4.76h-20.42Zm0-36.36l-10.2-17.69,10.2-17.68h20.42l2.75,4.77,7.46,12.91-7.46,12.92-2.75,4.77h-20.42Zm0-36.37l-10.2-17.68,10.2-17.68h20.42l2.75,4.76,7.46,12.92-7.48,12.95-2.73,4.73h-20.42Zm0-36.36l-10.2-17.68,10.2-17.68h20.42l2.75,4.76,7.46,12.92-7.48,12.94-2.73,4.74h-20.42Zm-11.07-18.18h-20.42l-2.75-4.77-7.45-12.91,7.45-12.92,2.75-4.77h20.42l10.21,17.69-10.21,17.68Zm-24.69-5.4l3.41,5.9-10.21,17.68h-20.42l-10.21-17.68,10.21-17.68h20.42l6.8,11.78Zm-38.29,5.4h-20.42l-10.21-17.68,10.21-17.69h20.42l10.21,17.69-10.21,17.68Zm-21.29,.5l-10.2,17.68h-20.42l-10.21-17.68,10.21-17.68h20.42l10.2,17.68Zm-41.7-.5h-20.41l-6.81-11.79-3.4-5.89,10.21-17.69h20.41l10.21,17.68-10.21,17.69Zm-28.74-12.42l7.46,12.92-7.47,12.94-2.74,4.74h-20.41l-10.21-17.68,10.21-17.68h20.41l2.75,4.76Zm-34.24,12.42h-20.41l-2.75-4.77-7.46-12.91,7.46-12.92,2.75-4.77h20.41l10.21,17.69-10.21,17.68Zm-24.68-5.4l3.4,5.9-10.21,17.68h-20.41l-10.21-17.68,10.21-17.68h20.41l6.81,11.78Zm-38.3,5.4h-20.42l-5.1-8.84-5.1-8.84,5.1-8.85,5.1-8.84h20.42l10.21,17.69-10.21,17.68Zm-26.39-8.34l5.11,8.84-5.11,8.84-5.1,8.84h-20.42l-10.2-17.68,10.2-17.68h20.42l5.1,8.84Zm-36.59,8.34h-20.42l-10.21-17.68,10.21-17.69h20.42l10.21,17.69-10.21,17.68Zm-24.04-4.27l2.76,4.77-2.74,4.73-7.47,12.95h-20.42l-10.21-17.68,10.21-17.68h20.42l7.45,12.91Zm-38.94,4.27h-20.42l-2.75-4.77-7.46-12.91,7.46-12.92,2.75-4.77h20.42l10.2,17.69-10.2,17.68Zm-24.69-5.4l3.4,5.9-10.21,17.68h-20.41l-10.21-17.68,10.21-17.68h20.41l6.81,11.78Zm-6.81,24.58l6.81,11.79,3.4,5.89-10.21,17.68h-20.41l-10.21-17.68,10.21-17.68h20.41Zm0,36.36l6.81,11.79,3.4,5.89-10.21,17.69h-20.41l-10.21-17.69,10.21-17.68h20.41Zm0,36.37l10.21,17.68-10.21,17.68h-20.41l-10.21-17.68,10.21-17.68h20.41Zm0,36.36l6.81,11.79,3.4,5.89-10.21,17.68h-20.41l-10.21-17.68,10.21-17.68h20.41Zm0,36.36l10.21,17.69-10.21,17.68h-20.41l-10.21-17.68,10.21-17.69h20.41Zm0,36.37l6.81,11.79,3.4,5.89-10.21,17.68h-20.41l-10.21-17.68,10.21-17.68h20.41Zm0,36.36l6.81,11.79,3.4,5.89-10.21,17.68h-20.41l-10.21-17.68,10.21-17.68h20.41Zm8.33,22.95l2.75-4.77h20.42l10.2,17.68-10.2,17.69h-20.42l-2.72-4.71-7.49-12.98,7.46-12.91Zm24.03-5.27l10.21-17.68h20.42l7.45,12.92,2.76,4.76-2.76,4.77-7.45,12.91h-20.42l-10.21-17.68Zm41.7,.5h20.42l10.21,17.68-10.21,17.69h-20.42l-10.21-17.69,10.21-17.68Zm21.29-.5l10.2-17.68h20.42l5.1,8.84,5.11,8.84-5.11,8.84-5.1,8.84h-20.42l-10.2-17.68Zm36.59,9.34l5.1-8.84h20.42l10.21,17.68-10.21,17.69h-20.42l-5.1-8.84-5.1-8.85,5.1-8.84Zm26.39-9.34l10.21-17.68h20.41l6.81,11.79,3.4,5.89-10.21,17.68h-20.41l-10.21-17.68Zm38.95,5.27l2.75-4.77h20.41l10.21,17.68-10.21,17.69h-20.41l-2.72-4.71-7.49-12.98,7.46-12.91Zm24.03-5.27l10.21-17.68h20.41l2.75,4.76,7.46,12.92-7.46,12.92-2.75,4.76h-20.41l-10.21-17.68Zm41.7,.5h20.41l10.21,17.68-10.21,17.69h-20.41l-10.21-17.69,10.21-17.68Zm21.28-.5l10.21-17.68h20.42l10.2,17.68-10.2,17.68h-20.42l-10.21-17.68Zm41.7,.5h20.42l10.21,17.68-10.21,17.69h-20.42l-10.21-17.69,10.21-17.68Zm21.28-.5l10.21-17.68h20.42l6.8,11.79,3.41,5.89-10.21,17.68h-20.42l-10.21-17.68Zm38.95,5.27l2.75-4.77h20.42l10.21,17.68-10.21,17.69h-20.42l-2.71-4.71-7.49-12.98,7.45-12.91Zm24.04-5.27l10.2-17.68h20.42l2.75,4.76,7.46,12.92-7.46,12.92-2.75,4.76h-20.42l-10.2-17.68Zm41.7,.5h20.41l10.21,17.68-10.21,17.69h-20.41l-10.21-17.69,10.21-17.68Zm0-1l-6.81-11.79-3.4-5.89,10.21-17.68h20.41l10.21,17.68-10.21,17.68h-20.41Zm0-36.36l-6.81-11.79-3.4-5.89,10.21-17.68h20.41l10.21,17.68-10.21,17.68h-20.41Zm0-36.36l-10.21-17.69,10.21-17.68h20.41l10.21,17.68-10.21,17.69h-20.41Zm0-36.37l-6.81-11.79-3.4-5.89,10.21-17.68h20.41l10.21,17.68-10.21,17.68h-20.41Zm0-36.36l-10.21-17.68,10.21-17.69h20.41l10.21,17.69-10.21,17.68h-20.41Zm0-36.37l-6.81-11.78-3.4-5.9,10.21-17.68h20.41l10.21,17.68-10.21,17.68h-20.41Zm0-36.36l-6.81-11.79-3.4-5.89,10.21-17.68h20.41l10.21,17.68-10.21,17.68h-20.41Zm0-36.36l-6.81-11.79-3.4-5.89,10.21-17.69h20.41l10.21,17.69-10.21,17.68h-20.41Zm-11.08-53.55l2.73,4.74,7.48,12.94-7.46,12.92-2.75,4.77h-20.42l-10.2-17.69,10.2-17.68h20.42Zm-54.66-13.42l2.75-4.76h20.42l10.21,17.68-10.21,17.68h-20.42l-2.73-4.73-7.47-12.95,7.45-12.92Zm-8.32,13.42l10.21,17.68-10.21,17.69h-20.42l-10.21-17.69,10.21-17.68h20.42ZM400.01,.5h20.42l10.21,17.68-10.21,17.68h-20.42l-10.21-17.68L400.01,.5Zm-11.07,18.18l10.2,17.68-10.2,17.69h-20.42l-10.21-17.69,10.21-17.68h20.42ZM337.03,.5h20.41l10.21,17.68-10.21,17.68h-20.41l-10.21-17.68L337.03,.5Zm-11.08,18.18l2.74,4.74,7.47,12.94-7.46,12.92-2.75,4.77h-20.41l-10.21-17.69,10.21-17.68h20.41Zm-54.65-13.42l2.75-4.76h20.41l10.21,17.68-10.21,17.68h-20.41l-2.74-4.73-7.47-12.95,7.46-12.92Zm-8.33,13.42l10.21,17.68-10.21,17.69h-20.41l-10.21-17.69,10.21-17.68h20.41Zm-57.01-9.34l5.1-8.84h20.42l10.21,17.68-10.21,17.68h-20.42l-5.1-8.84-5.1-8.84,5.1-8.84Zm-5.97,9.34l5.1,8.84,5.11,8.84-5.11,8.84-5.1,8.85h-20.42l-10.2-17.69,10.2-17.68h20.42ZM148.08,.5h20.42l10.21,17.68-10.21,17.68h-20.42l-10.21-17.68L148.08,.5Zm-11.07,18.18l7.47,12.95,2.74,4.73-2.76,4.77-7.45,12.92h-20.42l-10.21-17.69,10.21-17.68h20.42ZM82.35,5.26l2.75-4.76h20.42l10.2,17.68-10.2,17.68h-20.42l-2.73-4.73-7.48-12.95,7.46-12.92Zm-8.33,13.42l10.21,17.68-10.21,17.69h-20.41l-10.21-17.69,10.21-17.68h20.41ZM17.01,27.02l-5.1-8.84,5.1-8.84L22.12,.5h20.41l10.21,17.68-10.21,17.68H22.12l-5.11-8.84Zm0,36.37l-5.1-8.84,5.1-8.85,5.11-8.84h20.41l10.21,17.69-10.21,17.68H22.12l-5.11-8.84Zm0,36.36l-5.1-8.84,5.1-8.84,5.11-8.84h20.41l10.21,17.68-10.21,17.68H22.12l-5.11-8.84Zm0,36.36l-5.1-8.84,5.1-8.84,5.11-8.84h20.41l10.21,17.68-10.21,17.68H22.12l-5.11-8.84Zm0,36.37l-5.1-8.84,5.1-8.84,5.11-8.85h20.41l10.21,17.69-10.21,17.68H22.12l-5.11-8.84Zm0,36.36l-5.1-8.84,5.1-8.84,5.11-8.84h20.41l10.21,17.68-10.21,17.68H22.12l-5.11-8.84Zm0,36.36l-5.1-8.84,5.1-8.84,5.11-8.84h20.41l10.21,17.68-10.21,17.69H22.12l-5.11-8.85Zm0,36.37l-5.1-8.84,5.1-8.84,5.11-8.84h20.41l10.21,17.68-10.21,17.68H22.12l-5.11-8.84Zm0,36.36l-5.1-8.84,5.1-8.84,5.11-8.84h20.41l10.21,17.68-10.21,17.68H22.12l-5.11-8.84Zm0,36.37l-5.1-8.85,5.1-8.84,5.11-8.84h20.41l10.21,17.68-10.21,17.69H22.12l-5.11-8.84Zm25.52,45.2H22.12l-5.11-8.84-5.1-8.84,5.1-8.84,5.11-8.84h20.41l10.21,17.68-10.21,17.68Zm11.08-18.18l-10.21-17.68,10.21-17.69h20.41l10.21,17.69-10.21,17.68h-20.41Zm51.91,18.18h-20.42l-2.75-4.76-7.46-12.92,7.46-12.92,2.75-4.76h20.42l10.2,17.68-10.2,17.68Zm11.07-18.18l-10.21-17.68,10.21-17.69h20.42l7.49,12.98,2.72,4.71-2.76,4.76-7.45,12.92h-20.42Zm51.91,18.18h-20.42l-10.21-17.68,10.21-17.68h20.42l10.21,17.68-10.21,17.68Zm11.07-18.18l-10.2-17.68,10.2-17.69h20.42l5.1,8.85,5.11,8.84-5.11,8.84-5.1,8.84h-20.42Zm51.91,18.18h-20.42l-5.1-8.84-5.1-8.84,5.1-8.84,5.1-8.84h20.42l10.21,17.68-10.21,17.68Zm11.08-18.18l-10.21-17.68,10.21-17.69h20.41l10.21,17.69-10.21,17.68h-20.41Zm51.9,18.18h-20.41l-2.75-4.76-7.46-12.92,7.46-12.92,2.75-4.76h20.41l10.21,17.68-10.21,17.68Zm11.08-18.18l-10.21-17.68,10.21-17.69h20.41l2.72,4.71,7.49,12.98-7.46,12.91-2.75,4.77h-20.41Zm51.9,18.18h-20.41l-6.81-11.79-3.4-5.89,10.21-17.68h20.41l10.21,17.68-10.21,17.68Zm11.08-18.18l-10.21-17.68,10.21-17.69h20.42l10.2,17.69-10.2,17.68h-20.42Zm51.91,18.18h-20.42l-10.21-17.68,10.21-17.68h20.42l10.21,17.68-10.21,17.68Zm11.07-18.18l-10.21-17.68,10.21-17.69h20.42l10.21,17.69-10.21,17.68h-20.42Zm51.91,18.18h-20.42l-2.75-4.76-7.45-12.92,7.45-12.92,2.75-4.76h20.42l10.21,17.68-10.21,17.68Zm11.07-18.18l-10.2-17.68,10.2-17.69h20.42l2.72,4.71,7.49,12.98-7.46,12.91-2.75,4.77h-20.42Zm51.91,18.18h-20.41l-6.81-11.79-3.4-5.89,10.21-17.68h20.41l10.21,17.68-10.21,17.68Zm36.6-44.7l5.1,8.84-5.1,8.84-5.11,8.84h-20.41l-10.21-17.68,10.21-17.69h20.41l5.11,8.85Zm0-36.37l5.1,8.84-5.1,8.84-5.11,8.84h-20.41l-10.21-17.68,10.21-17.68h20.41l5.11,8.84Zm0-36.36l5.1,8.84-5.1,8.84-5.11,8.84h-20.41l-10.21-17.68,10.21-17.68h20.41l5.11,8.84Zm0-36.37l5.1,8.85-5.1,8.84-5.11,8.84h-20.41l-10.21-17.68,10.21-17.69h20.41l5.11,8.84Zm0-36.36l5.1,8.84-5.1,8.84-5.11,8.84h-20.41l-10.21-17.68,10.21-17.68h20.41l5.11,8.84Zm0-36.36l5.1,8.84-5.1,8.84-5.11,8.84h-20.41l-10.21-17.68,10.21-17.68h20.41l5.11,8.84Zm0-36.37l5.1,8.84-5.1,8.85-5.11,8.84h-20.41l-10.21-17.69,10.21-17.68h20.41l5.11,8.84Zm0-36.36l5.1,8.84-5.1,8.84-5.11,8.84h-20.41l-10.21-17.68,10.21-17.68h20.41l5.11,8.84Zm0-36.36l5.1,8.84-5.1,8.84-5.11,8.84h-20.41l-10.21-17.68,10.21-17.68h20.41l5.11,8.84Zm0-36.37l5.1,8.84-5.1,8.84-5.11,8.85h-20.41l-10.21-17.69,10.21-17.68h20.41l5.11,8.84Z"/></g></svg>